<svg width="50" height="50" viewBox="0 0 50 50" fill="none" xmlns="http://www.w3.org/2000/svg" role="img" aria-labelledby="title desc">
    <title id="title">StudyBlocks Icon White</title>
    <desc id="desc">White isometric stacked blocks icon.</desc>

    <!-- Bottom block -->
    <path d="M15 32.5L25 27.5L25 42.5L15 37.5Z" fill="#D9D9D9"/>
    <path d="M25 27.5L35 32.5L35 37.5L25 42.5Z" fill="#B3B3B3"/>
    <path d="M15 32.5L25 27.5L35 32.5L25 37.5Z" fill="#FFFFFF"/>

    <!-- Middle block -->
    <path d="M20 22.5L30 17.5L30 32.5L20 27.5Z" fill="#D9D9D9"/>
    <path d="M30 17.5L40 22.5L40 27.5L30 32.5Z" fill="#B3B3B3"/>
    <path d="M20 22.5L30 17.5L40 22.5L30 27.5Z" fill="#FFFFFF"/>

    <!-- Top block -->
    <path d="M10 17.5L20 12.5L20 27.5L10 22.5Z" fill="#D9D9D9"/>
    <path d="M20 12.5L30 17.5L30 22.5L20 27.5Z" fill="#B3B3B3"/>
    <path d="M10 17.5L20 12.5L30 17.5L20 22.5Z" fill="#FFFFFF"/>
</svg>